<svg width="25" height="24" viewBox="0 0 25 24" fill="none" xmlns="http://www.w3.org/2000/svg">
<path d="M12.7168 5.07692C13.7098 5.07692 14.9545 4.40559 15.6958 3.51049C16.3671 2.6993 16.8566 1.56643 16.8566 0.433567C16.8566 0.279721 16.8427 0.125874 16.8147 0C15.7098 0.0419581 14.3811 0.741259 13.5839 1.67832C12.9545 2.39161 12.3811 3.51049 12.3811 4.65734C12.3811 4.82517 12.4091 4.99301 12.4231 5.04895C12.493 5.06294 12.6049 5.07692 12.7168 5.07692ZM9.22028 22C10.5769 22 11.1783 21.0909 12.8706 21.0909C14.5909 21.0909 14.9685 21.972 16.479 21.972C17.9615 21.972 18.9545 20.6014 19.8916 19.2587C20.9406 17.7203 21.3741 16.2098 21.4021 16.1399C21.3042 16.1119 18.465 14.951 18.465 11.6923C18.465 8.86713 20.7028 7.59441 20.8287 7.4965C19.3462 5.37063 17.0944 5.31469 16.479 5.31469C14.8147 5.31469 13.458 6.32168 12.6049 6.32168C11.6818 6.32168 10.465 5.37063 9.02448 5.37063C6.28322 5.37063 3.5 7.63636 3.5 11.9161C3.5 14.5734 4.53496 17.3846 5.80769 19.2028C6.8986 20.7413 7.84965 22 9.22028 22Z" fill="black"/>
</svg>
