<svg width="25" height="24" viewBox="0 0 25 24" fill="none" xmlns="http://www.w3.org/2000/svg">
<g clip-path="url(#clip0_765_211)">
<path d="M24.2187 12.2652C24.2187 11.2819 24.1389 10.5644 23.9662 9.82031H12.7383V14.2583H19.3288C19.196 15.3612 18.4785 17.0221 16.884 18.1382L16.8616 18.2868L20.4117 21.037L20.6576 21.0616C22.9165 18.9754 24.2187 15.906 24.2187 12.2652Z" fill="#4285F4"/>
<path d="M12.7398 23.9588C15.9687 23.9588 18.6793 22.8958 20.6592 21.0622L16.8855 18.1388C15.8757 18.8431 14.5203 19.3347 12.7398 19.3347C9.57744 19.3347 6.89337 17.2486 5.93658 14.3652L5.79634 14.3771L2.10492 17.234L2.05664 17.3682C4.02318 21.2747 8.06259 23.9588 12.7398 23.9588Z" fill="#34A853"/>
<path d="M5.93676 14.3658C5.6843 13.6217 5.5382 12.8244 5.5382 12.0006C5.5382 11.1767 5.6843 10.3795 5.92348 9.63541L5.91679 9.47694L2.17911 6.57422L2.05682 6.63239C1.24632 8.25349 0.78125 10.0739 0.78125 12.0006C0.78125 13.9273 1.24632 15.7476 2.05682 17.3687L5.93676 14.3658Z" fill="#FBBC05"/>
<path d="M12.7398 4.66505C14.9854 4.66505 16.5002 5.63503 17.3639 6.44563L20.7389 3.1503C18.6661 1.22361 15.9687 0.0410156 12.7398 0.0410156C8.06259 0.0410156 4.02317 2.72508 2.05664 6.63158L5.9233 9.6346C6.89337 6.75121 9.57743 4.66505 12.7398 4.66505Z" fill="#EB4335"/>
</g>
<defs>
<clipPath id="clip0_765_211">
<rect width="24" height="24" fill="white" transform="translate(0.5)"/>
</clipPath>
</defs>
</svg>
