<svg width="24" height="24" viewBox="0 0 24 24" fill="none" xmlns="http://www.w3.org/2000/svg">
<path d="M22 12C22 17.5228 17.5228 22 12 22C6.47715 22 2 17.5228 2 12C2 6.47715 6.47715 2 12 2C12.4627 2 12.5392 2.69347 12.1432 2.93276C10.2594 4.07105 9 6.13845 9 8.5C9 12.0899 11.9101 15 15.5 15C17.8615 15 19.9289 13.7406 21.0672 11.8568C21.3065 11.4608 22 11.5373 22 12Z" fill="#010A27"/>
<path d="M19.0007 2.30719C19.1616 1.8976 19.7392 1.8976 19.9001 2.30719L20.3305 3.40247C20.3796 3.52752 20.4782 3.62651 20.6028 3.67583L21.6941 4.1078C22.1022 4.26934 22.1022 4.849 21.6941 5.01054L20.6028 5.44252C20.4782 5.49184 20.3796 5.59082 20.3305 5.71587L19.9001 6.81116C19.7392 7.22074 19.1616 7.22074 19.0007 6.81115L18.5703 5.71587C18.5212 5.59082 18.4226 5.49184 18.298 5.44252L17.2067 5.01054C16.7986 4.849 16.7986 4.26934 17.2067 4.1078L18.298 3.67583C18.4226 3.62651 18.5212 3.52752 18.5703 3.40247L19.0007 2.30719Z" fill="#010A27"/>
<path d="M15.1333 8.12967C15.2943 7.72009 15.8718 7.72009 16.0328 8.12967L16.1897 8.52902C16.2388 8.65407 16.3374 8.75305 16.462 8.80237L16.8599 8.95987C17.268 9.12141 17.268 9.70107 16.8599 9.86261L16.462 10.0201C16.3374 10.0694 16.2388 10.1684 16.1897 10.2935L16.0328 10.6928C15.8718 11.1024 15.2943 11.1024 15.1333 10.6928L14.9764 10.2935C14.9273 10.1684 14.8287 10.0694 14.7041 10.0201L14.3062 9.86261C13.8981 9.70107 13.8981 9.12141 14.3062 8.95987L14.7041 8.80237C14.8287 8.75305 14.9273 8.65407 14.9764 8.52902L15.1333 8.12967Z" fill="#010A27"/>
</svg>
